# xmcd CD database file generated by Grip 3.2.0
# 
# Track frame offsets:
#       150
#       16511
#       42322
#       55109
#       74093
#       90851
#       104743
#       125669
#       143039
#       165230
#       181683
#       197173
# 
# Disc length: 2894 seconds
# 
# Revision: 3
# Processed by: cddbd v1.5.2PL0 Copyright (c) Steve Scherf et al.
# Submitted via: Grip 3.2.0
# 
DISCID=9a0b4c0c
DTITLE=Julian Dawson - Under The Sun
DYEAR=1999
DGENRE=Blues
TTITLE0=You Think You're Alone
TTITLE1=Jesus Knows Tomorrow
TTITLE2=We Can't Be Together
TTITLE3=How Come You Love Me
TTITLE4=If He Wanted Us To Fly
TTITLE5=World Keeps On Changing
TTITLE6=Miss A Miracle
TTITLE7=Broken-Down Palace
TTITLE8=Cars and Showbiz Weddings
TTITLE9=All About The Ride
TTITLE10=Amazing Disappearing Daddy
TTITLE11=Four Walls
EXTD=
EXTT0=
EXTT1=
EXTT2=
EXTT3=
EXTT4=
EXTT5=
EXTT6=
EXTT7=
EXTT8=
EXTT9=
EXTT10=
EXTT11=
PLAYORDER=
